<?xml version="1.0" standalone="no"?>
<!DOCTYPE svg PUBLIC "-//W3C//DTD SVG 20010904//EN"
 "http://www.w3.org/TR/2001/REC-SVG-20010904/DTD/svg10.dtd">
<svg version="1.0" xmlns="http://www.w3.org/2000/svg"
 width="1712.000000pt" height="1712.000000pt" viewBox="0 0 1712.000000 1712.000000"
 preserveAspectRatio="xMidYMid meet">
<metadata>
Created by potrace 1.11, written by Peter Selinger 2001-2013
</metadata>
<g transform="translate(0.000000,1712.000000) scale(0.100000,-0.100000)"
fill="#000000" stroke="none">
<path d="M6880 17096 c0 -3 11 -52 24 -109 21 -84 76 -340 92 -421 5 -27 23
-123 29 -161 3 -16 8 -37 10 -45 2 -8 7 -31 10 -50 3 -19 14 -82 25 -140 11
-58 21 -118 24 -135 2 -16 11 -70 19 -120 9 -49 18 -108 22 -130 3 -22 10 -67
15 -100 5 -33 12 -80 15 -105 3 -25 10 -76 15 -115 5 -38 12 -90 15 -115 4
-25 8 -56 10 -70 2 -14 6 -52 10 -85 3 -33 8 -76 10 -95 6 -49 15 -141 30
-295 4 -50 12 -141 20 -245 4 -50 10 -150 20 -300 23 -355 23 -1152 0 -1475
-2 -27 -6 -97 -10 -155 -4 -58 -8 -121 -10 -140 -1 -20 -6 -76 -9 -125 -4 -50
-9 -110 -12 -135 -9 -84 -16 -145 -19 -170 -2 -14 -6 -52 -10 -85 -3 -33 -8
-73 -10 -90 -3 -16 -9 -66 -15 -110 -6 -44 -12 -91 -15 -105 -2 -14 -9 -61
-15 -105 -13 -90 -15 -106 -36 -225 -8 -47 -17 -98 -20 -115 -5 -35 -21 -120
-29 -155 -2 -14 -14 -72 -26 -130 -11 -58 -30 -143 -41 -190 -11 -47 -21 -92
-23 -100 -133 -568 -324 -1130 -578 -1700 -77 -174 -255 -537 -327 -670 -29
-52 -66 -121 -84 -153 -17 -32 -35 -66 -41 -75 -5 -9 -27 -49 -49 -87 -21 -39
-48 -86 -61 -105 -27 -43 -142 -234 -165 -275 -37 -65 -345 -535 -391 -595
-14 -19 -70 -98 -124 -175 -55 -77 -103 -144 -108 -150 -4 -5 -60 -80 -124
-165 -108 -143 -381 -489 -463 -586 -19 -22 -55 -65 -80 -95 -97 -115 -323
-375 -385 -443 -6 -6 -55 -60 -110 -121 -55 -60 -110 -121 -122 -134 -20 -23
-21 -26 -5 -36 81 -53 880 -565 909 -583 21 -12 121 -76 223 -142 l185 -120
25 28 c14 15 54 61 90 101 36 41 70 79 76 85 29 31 282 338 318 386 23 30 46
60 52 65 6 6 71 91 144 190 73 99 145 196 160 215 47 61 314 460 392 585 233
374 368 614 548 975 56 113 106 212 111 220 5 8 14 25 19 38 5 13 22 49 36 80
55 118 106 233 124 277 5 11 22 49 38 85 16 36 62 148 102 250 39 102 76 194
81 205 52 123 200 557 298 880 51 165 128 445 146 525 2 8 18 71 35 140 59
234 165 725 186 865 3 17 12 68 20 115 9 47 18 99 20 115 4 31 14 96 20 130 2
10 6 35 8 55 3 19 8 54 11 77 8 59 12 90 19 153 4 30 9 71 11 90 6 43 16 148
30 320 26 312 26 1176 0 1331 -2 13 -6 64 -9 112 -6 92 -13 161 -21 212 -2 17
-7 62 -10 100 -4 39 -8 77 -10 85 -2 8 -7 38 -10 65 -4 28 -11 79 -17 115 -5
36 -12 79 -15 95 -2 17 -11 66 -18 110 -8 44 -17 96 -20 115 -7 39 -58 288
-75 365 -38 169 -122 492 -160 615 -6 19 -13 42 -15 50 -8 34 -77 245 -128
395 -116 338 -242 655 -378 953 -16 35 -29 65 -29 67 0 12 -239 499 -304 617
-18 35 -50 95 -71 133 -39 73 -45 83 -45 71z"/>
<path d="M8694 14768 c2 -12 15 -75 29 -138 30 -131 25 -108 72 -350 19 -102
37 -199 39 -215 3 -17 7 -42 11 -55 3 -14 8 -41 10 -60 2 -19 9 -66 16 -105
15 -97 16 -102 24 -170 4 -33 9 -62 10 -65 2 -3 6 -34 10 -70 4 -36 9 -73 11
-83 2 -10 6 -46 9 -80 3 -34 8 -73 10 -87 2 -14 7 -52 10 -85 3 -33 8 -80 10
-105 3 -25 7 -70 10 -100 5 -76 16 -216 20 -270 2 -25 7 -106 10 -180 4 -74 8
-173 10 -220 6 -112 6 -667 0 -800 -12 -283 -26 -512 -40 -650 -3 -25 -7 -67
-10 -95 -11 -126 -16 -172 -20 -195 -2 -14 -7 -50 -10 -80 -5 -53 -22 -177
-30 -230 -3 -14 -9 -56 -15 -95 -15 -100 -19 -130 -35 -220 -8 -44 -17 -96
-20 -115 -3 -19 -13 -69 -21 -110 -9 -41 -17 -84 -19 -95 -2 -11 -6 -31 -9
-45 -2 -14 -9 -45 -15 -70 -5 -25 -12 -56 -15 -70 -2 -14 -19 -86 -36 -160
-18 -74 -33 -142 -35 -150 -3 -12 -30 -115 -81 -310 -6 -21 -66 -233 -109
-380 -72 -249 -265 -808 -355 -1030 -10 -25 -35 -88 -55 -140 -219 -558 -572
-1282 -893 -1835 -41 -71 -83 -143 -92 -160 -203 -356 -604 -955 -947 -1412
-67 -89 -125 -168 -129 -175 -4 -7 67 59 157 148 199 195 264 258 410 394 62
58 120 112 129 120 9 8 56 51 105 95 50 44 94 85 100 91 5 5 51 46 100 90 50
43 92 81 95 84 3 3 48 41 100 85 52 44 101 87 110 96 84 89 769 623 1077 840
212 150 708 469 728 469 2 0 26 13 52 29 205 126 636 333 900 432 284 107 612
195 838 224 28 4 61 8 75 10 60 9 243 19 335 19 103 0 296 -12 318 -19 6 -2
30 -6 52 -9 82 -12 113 -18 220 -46 263 -68 406 -163 485 -320 44 -87 58 -165
55 -290 -5 -135 -12 -177 -57 -320 -77 -244 -267 -611 -452 -874 -10 -15 -17
-28 -15 -30 2 -2 38 23 79 56 41 32 90 71 109 86 49 38 330 319 371 370 19 24
40 49 46 55 22 25 153 205 189 262 238 372 414 836 481 1270 26 168 42 306 51
430 15 195 7 730 -11 845 -3 14 -7 52 -10 85 -3 33 -8 69 -10 80 -2 12 -7 48
-11 80 -4 33 -9 67 -10 75 -24 129 -47 243 -54 275 -14 56 -42 175 -46 194
-26 118 -137 459 -215 661 -157 407 -453 982 -661 1287 -16 23 -29 46 -29 51
0 5 -9 17 -20 27 -11 10 -20 22 -20 26 0 8 -45 75 -155 234 -122 174 -479 644
-515 675 -3 3 -37 43 -75 90 -38 47 -72 87 -75 90 -6 6 -61 68 -141 160 -257
294 -871 914 -1133 1145 -6 6 -36 33 -66 60 -280 255 -639 561 -976 830 -202
162 -327 260 -336 263 -5 2 -7 -7 -4 -20z"/>
<path d="M13817 4793 c-1 0 -52 -4 -114 -7 -62 -4 -127 -9 -145 -11 -18 -2
-73 -6 -123 -10 -99 -6 -138 -10 -295 -25 -58 -6 -130 -13 -160 -16 -30 -3
-71 -7 -90 -9 -19 -3 -60 -7 -90 -10 -86 -9 -561 -69 -630 -80 -30 -5 -154
-24 -190 -30 -59 -8 -116 -18 -135 -21 -10 -2 -37 -6 -60 -10 -22 -3 -62 -10
-90 -15 -27 -5 -66 -12 -85 -15 -19 -3 -105 -19 -190 -36 -85 -16 -166 -32
-180 -34 -14 -3 -88 -19 -165 -36 -77 -16 -151 -32 -165 -35 -120 -21 -802
-200 -966 -254 -33 -11 -69 -21 -80 -24 -71 -14 -654 -216 -979 -338 -391
-146 -1269 -506 -1310 -536 -5 -5 -29 -15 -52 -24 -23 -9 -61 -25 -85 -36
-579 -264 -648 -297 -1138 -539 -381 -187 -456 -222 -635 -294 -55 -22 -111
-45 -125 -51 -14 -5 -29 -11 -35 -12 -5 -2 -44 -16 -85 -33 -112 -44 -399
-138 -530 -172 -98 -25 -170 -40 -320 -65 -45 -8 -184 -8 -238 -1 -151 21
-231 101 -237 236 -6 165 81 320 240 430 161 111 504 221 770 247 33 3 67 7
75 8 8 2 38 4 65 6 47 2 48 2 15 8 -41 8 -427 6 -456 -2 -10 -3 -41 -8 -69
-12 -459 -54 -796 -265 -922 -575 -46 -116 -63 -285 -38 -403 31 -150 122
-273 247 -334 150 -73 284 -98 518 -98 246 1 414 26 700 107 335 94 620 209
1145 463 185 89 358 172 465 222 41 20 122 58 179 84 57 27 105 49 106 49 2 0
36 15 77 34 180 84 548 239 873 367 110 44 209 84 220 89 27 12 365 140 370
140 2 0 16 5 32 12 15 6 30 12 33 13 3 1 12 4 20 8 165 66 933 314 1145 370
11 3 79 22 150 42 171 48 483 128 670 172 83 19 155 36 160 37 6 1 37 8 70 15
33 7 87 18 120 26 33 8 71 16 85 19 14 2 93 18 175 34 300 61 299 60 545 102
285 48 401 66 475 75 28 4 57 8 65 10 8 2 53 9 100 15 127 16 208 27 262 36
l28 4 -29 -78 c-92 -248 -230 -518 -373 -731 -78 -115 -71 -106 -163 -216
-180 -214 -616 -651 -882 -882 -58 -51 -171 -152 -202 -182 -32 -30 -22 -26
99 36 339 175 703 411 990 641 302 243 587 525 827 822 7 8 44 56 84 105 39
50 76 97 82 105 72 90 304 440 392 588 80 137 142 247 224 404 l61 116 -51 -1
c-28 -1 -51 -3 -52 -4z"/>
<path d="M13335 2121 c-385 -243 -974 -467 -1445 -550 -283 -50 -374 -56 -805
-56 -332 1 -433 4 -640 20 -33 3 -91 7 -130 10 -38 3 -90 8 -115 11 -62 6
-113 11 -195 18 -38 4 -81 9 -95 11 -14 2 -53 7 -87 10 -34 3 -70 7 -80 9 -10
2 -45 7 -78 10 -33 4 -73 9 -90 11 -16 2 -88 11 -160 20 -188 23 -185 23 -240
31 -27 4 -59 8 -70 9 -28 3 -134 15 -172 21 -18 2 -48 6 -65 8 -18 3 -60 8
-93 11 -33 3 -71 8 -85 10 -14 3 -56 7 -95 10 -38 4 -81 8 -95 10 -53 8 -189
21 -315 30 -44 4 -102 8 -130 10 -245 18 -708 24 -865 11 -41 -3 -106 -9 -145
-12 -56 -4 -346 -48 -390 -58 -5 -2 -23 -6 -40 -10 -16 -4 -68 -16 -115 -28
-526 -125 -1237 -431 -1950 -839 -52 -29 -103 -58 -113 -64 -260 -148 -1105
-690 -1157 -742 -8 -8 26 6 75 32 521 276 991 489 1405 638 137 49 421 141
485 156 22 5 65 16 96 25 67 18 260 63 309 71 19 3 53 10 75 15 22 5 58 11 80
15 22 3 67 10 100 15 33 5 88 12 122 15 35 3 73 8 85 11 109 22 710 22 1063 0
186 -12 263 -18 285 -21 14 -2 61 -6 105 -10 80 -6 121 -10 205 -20 99 -12
117 -14 175 -20 33 -3 71 -8 85 -10 42 -8 81 -13 180 -25 52 -7 104 -14 115
-16 11 -2 58 -9 105 -14 47 -6 92 -13 100 -15 8 -2 38 -6 65 -10 28 -3 77 -10
110 -15 51 -8 225 -30 345 -44 19 -3 69 -7 110 -11 41 -4 86 -9 100 -11 110
-17 636 -24 815 -10 55 5 118 10 140 11 39 3 176 21 225 30 205 36 283 52 437
90 757 187 1658 615 2398 1137 61 43 115 80 120 82 6 2 8 6 5 9 -3 3 -32 -11
-65 -32z"/>
<path d="M3240 30 c-9 -6 -10 -10 -3 -10 6 0 15 5 18 10 8 12 4 12 -15 0z"/>
</g>
</svg>
